<svg xmlns="http://www.w3.org/2000/svg" width="14" height="17"><style></style><g id="SUBNAVI - ver 2"><path id="Shape 322" d="M13.87 14.92L9.94 9.69h-.29l-.28.28-.42-.57c.93-.95 1.51-2.24 1.51-3.67C10.46 2.84 8.11.5 5.23.5 2.34.5 0 2.84 0 5.73c0 2.88 2.34 5.23 5.23 5.23.85 0 1.66-.21 2.37-.58l.52.6-.31.31v.15s3.87 4.86 4.11 5.1c.24.24.78.15.78.15s.78-.45 1.17-.84c.39-.39 0-.93 0-.93zM1.84 5.73c0-1.87 1.52-3.39 3.39-3.39a3.39 3.39 0 013.38 3.39c0 1.86-1.52 3.38-3.38 3.38a3.39 3.39 0 01-3.39-3.38z" opacity=".502" fill="#8e929b"/></g></svg>